<svg width="1023" height="189" viewBox="0 0 1023 189" fill="none" xmlns="http://www.w3.org/2000/svg">
<path opacity="0.25" fill-rule="evenodd" clip-rule="evenodd" d="M44.0616 185.5H0.0457764L64.8721 3.79018H105.145L169.726 185.5H124.982L112.424 147.826H56.8611L44.0616 185.5ZM55.7865 146.326H113.505L126.063 184H167.601L104.087 5.29018H65.9296L2.17351 184H42.987L55.7865 146.326ZM88.1702 75.7896L88.1662 75.7769C87.1979 72.7107 86.2298 69.5643 85.2618 66.3377C85.0867 65.754 84.9216 65.1871 84.7666 64.6371C84.6137 65.1794 84.451 65.7382 84.2786 66.3133C83.4649 69.4028 82.4903 72.5689 81.3556 75.8115C81.3545 75.8146 81.3534 75.8177 81.3524 75.8207L69.2224 111.982H100.311L88.1702 75.7896ZM102.396 113.482H67.1371L79.9366 75.3252C81.0636 72.1052 82.0296 68.9657 82.8346 65.9067C83.2942 64.3746 83.6809 62.97 83.9948 61.693C84.3405 60.2862 84.5978 59.0343 84.7666 57.9372C84.9353 59.0343 85.1926 60.2863 85.5383 61.693C85.8522 62.97 86.2389 64.3746 86.6986 65.9067C87.6646 69.1267 88.6306 72.2662 89.5966 75.3252L102.396 113.482ZM220.154 185.5H182.312V0.40918H222.503V72.9006C226.17 68.796 230.954 65.4514 236.81 62.8482C244.422 59.3743 252.684 57.6447 261.575 57.6447C273.095 57.6447 283.133 60.4457 291.623 66.1042C300.248 71.7449 306.865 79.6185 311.48 89.6725C316.095 99.7283 318.378 111.462 318.378 124.833C318.378 137.433 315.841 148.626 310.722 158.371C305.765 167.951 298.728 175.407 289.624 180.705C280.671 186.01 270.339 188.64 258.677 188.64C250.097 188.64 242.221 186.906 235.076 183.416L235.057 183.407L235.038 183.397C229.491 180.491 225.047 176.924 221.756 172.678L220.154 185.5ZM218.829 184H183.812V1.90918H221.003V77.2572C221.474 76.5605 221.974 75.882 222.503 75.2218C226.128 70.6949 231.102 67.0264 237.425 64.2162C244.831 60.8352 252.881 59.1447 261.575 59.1447C272.845 59.1447 282.585 61.8817 290.796 67.3557C299.168 72.8297 305.608 80.4772 310.116 90.2982C314.624 100.119 316.878 111.631 316.878 124.833C316.878 137.23 314.383 148.178 309.392 157.677C304.562 167.015 297.719 174.26 288.864 179.412C280.17 184.564 270.108 187.14 258.677 187.14C250.305 187.14 242.657 185.449 235.734 182.068C229.802 178.961 225.233 175.11 222.027 170.516C221.578 169.873 221.156 169.216 220.761 168.544L218.829 184ZM265.146 147.94L265.157 147.934C269.257 145.504 272.357 142.177 274.482 137.927L274.491 137.909L274.501 137.89C276.782 133.633 277.946 128.651 277.946 122.901C277.946 117.15 276.782 112.168 274.501 107.912L274.491 107.893L274.482 107.874C272.357 103.624 269.257 100.297 265.157 97.8677L265.146 97.8613L265.136 97.8547C261.232 95.4523 256.446 94.2132 250.707 94.2132C245.141 94.2132 240.251 95.4477 235.996 97.8796L235.988 97.8841L235.98 97.8885C231.889 100.161 228.625 103.416 226.179 107.688C223.908 111.936 222.744 116.99 222.744 122.901C222.744 128.638 223.903 133.7 226.185 138.123C228.628 142.389 231.893 145.726 235.988 148.159C240.244 150.432 245.138 151.588 250.707 151.588C256.446 151.588 261.232 150.349 265.136 147.947L265.146 147.94ZM235.251 149.466C230.904 146.89 227.443 143.348 224.867 138.84C222.452 134.171 221.244 128.858 221.244 122.901C221.244 116.783 222.452 111.47 224.867 106.962C227.443 102.454 230.904 98.9922 235.251 96.5772C239.759 94.0012 244.911 92.7132 250.707 92.7132C256.664 92.7132 261.736 94.0012 265.922 96.5772C270.269 99.1532 273.569 102.695 275.823 107.203C278.238 111.711 279.446 116.944 279.446 122.901C279.446 128.858 278.238 134.09 275.823 138.598C273.569 143.106 270.269 146.648 265.922 149.224C261.736 151.8 256.664 153.088 250.707 153.088C244.911 153.088 239.759 151.881 235.251 149.466ZM338.929 89.2914L338.933 89.285C344.869 79.3906 352.96 71.7135 363.181 66.2731L363.19 66.2684C373.573 60.8296 385.329 58.1277 398.421 58.1277C411.512 58.1277 423.191 60.8294 433.418 66.2731C443.639 71.713 451.65 79.3905 457.427 89.2875C463.381 99.0513 466.333 110.435 466.333 123.384C466.333 136.335 463.38 147.72 457.424 157.485C451.646 167.222 443.634 174.816 433.418 180.253C423.191 185.697 411.512 188.398 398.421 188.398C385.329 188.398 373.573 185.696 363.19 180.258L363.181 180.253C352.966 174.816 344.877 167.224 338.939 157.492L338.934 157.484L338.929 157.476C333.137 147.712 330.266 136.331 330.266 123.384C330.266 110.437 333.137 99.0553 338.929 89.2914ZM456.139 156.711C461.935 147.212 464.833 136.103 464.833 123.384C464.833 110.665 461.935 99.5557 456.139 90.0567C450.504 80.3967 442.696 72.9102 432.714 67.5972C422.732 62.2842 411.301 59.6277 398.421 59.6277C385.54 59.6277 374.029 62.2842 363.886 67.5972C353.904 72.9102 346.015 80.3967 340.219 90.0567C334.584 99.5557 331.766 110.665 331.766 123.384C331.766 136.103 334.584 147.212 340.219 156.711C346.015 166.21 353.904 173.616 363.886 178.929C374.029 184.242 385.54 186.898 398.421 186.898C411.301 186.898 422.732 184.242 432.714 178.929C442.696 173.616 450.504 166.21 456.139 156.711ZM412.888 98.1198L412.87 98.1092C408.787 95.6895 403.988 94.4547 398.421 94.4547C392.853 94.4547 388.054 95.6895 383.971 98.1092L383.953 98.1198L383.934 98.13C379.843 100.403 376.579 103.658 374.134 107.93C371.863 112.177 370.699 117.232 370.699 123.142C370.699 129.047 371.861 134.189 374.14 138.606C376.585 142.875 379.853 146.214 383.952 148.648C388.038 150.913 392.845 152.071 398.421 152.071C403.996 152.071 408.803 150.913 412.888 148.648C416.985 146.216 420.167 142.883 422.451 138.624C424.735 134.202 425.901 129.055 425.901 123.142C425.901 117.223 424.733 112.163 422.456 107.912C420.173 103.65 416.994 100.401 412.907 98.13L412.888 98.1198ZM423.778 139.323C421.363 143.831 417.982 147.373 413.635 149.949C409.288 152.364 404.217 153.571 398.421 153.571C392.625 153.571 387.553 152.364 383.206 149.949C378.859 147.373 375.397 143.831 372.822 139.323C370.406 134.654 369.199 129.26 369.199 123.142C369.199 117.024 370.406 111.711 372.822 107.203C375.397 102.695 378.859 99.2337 383.206 96.8187C387.553 94.2427 392.625 92.9547 398.421 92.9547C404.217 92.9547 409.288 94.2427 413.635 96.8187C417.982 99.2337 421.363 102.695 423.778 107.203C426.193 111.711 427.401 117.024 427.401 123.142C427.401 129.26 426.193 134.654 423.778 139.323ZM562.242 61.7502H602.434V185.5H564.66L562.595 173.934C558.903 177.989 554.08 181.31 548.175 183.921C541.225 187.064 534.013 188.64 526.551 188.64C512.528 188.64 501.239 184.254 492.858 175.37L492.848 175.359L492.838 175.348C484.638 166.312 480.615 154.165 480.615 139.081V61.7502H520.806V125.557C520.806 135.245 522.562 142.091 525.807 146.376C528.98 150.406 534.024 152.554 541.283 152.554C549.093 152.554 554.262 150.449 557.245 146.613L557.25 146.607C560.482 142.494 562.242 135.742 562.242 126.04V61.7502ZM524.619 147.292C521.077 142.623 519.306 135.378 519.306 125.557V63.2502H482.115V139.081C482.115 153.893 486.06 165.646 493.949 174.34C501.999 182.873 512.866 187.14 526.551 187.14C533.797 187.14 540.8 185.61 547.562 182.551C553.744 179.82 558.643 176.317 562.257 172.045C562.69 171.533 563.105 171.01 563.501 170.476L565.916 184H600.934V63.2502H563.742V126.04C563.742 135.861 561.971 143.026 558.43 147.534C555.048 151.881 549.333 154.054 541.283 154.054C533.716 154.054 528.161 151.8 524.619 147.292ZM615.991 61.7502H638.934V24.3177H679.125V61.7502H702.067V95.6622H679.125V185.5H638.934V95.6622H615.991V61.7502ZM640.434 94.1622V184H677.625V94.1622H700.567V63.2502H677.625V25.8177H640.434V63.2502H617.491V94.1622H640.434ZM859.873 61.7502H900.064V185.5H862.29L860.225 173.934C856.533 177.989 851.71 181.31 845.805 183.921C838.855 187.064 831.643 188.64 824.182 188.64C810.159 188.64 798.869 184.254 790.488 175.37L790.478 175.359L790.468 175.348C782.268 166.312 778.245 154.165 778.245 139.081V61.7502H818.437V125.557C818.437 135.245 820.192 142.091 823.437 146.376C826.61 150.406 831.654 152.554 838.913 152.554C846.723 152.554 851.892 150.449 854.876 146.613L854.88 146.607C858.112 142.494 859.873 135.742 859.873 126.04V61.7502ZM822.25 147.292C818.708 142.623 816.937 135.378 816.937 125.557V63.2502H779.745V139.081C779.745 153.893 783.69 165.646 791.579 174.34C799.629 182.873 810.497 187.14 824.182 187.14C831.427 187.14 838.43 185.61 845.192 182.551C851.375 179.82 856.273 176.317 859.887 172.045C860.32 171.533 860.735 171.01 861.131 170.476L863.546 184H898.564V63.2502H861.373V126.04C861.373 135.861 859.602 143.026 856.06 147.534C852.679 151.881 846.963 154.054 838.913 154.054C831.346 154.054 825.792 151.8 822.25 147.292ZM913.919 144.343H952.068L952.174 145.728C952.467 149.533 953.977 152.434 956.68 154.567C959.378 156.698 963.347 157.867 968.791 157.867C974.478 157.867 978.367 156.909 980.726 155.244C983.109 153.562 984.196 151.503 984.196 148.983C984.196 147.648 983.656 146.202 982.362 144.62L982.335 144.587L982.309 144.552C981.866 143.943 981.062 143.295 979.743 142.672C978.432 142.053 976.7 141.499 974.514 141.031L974.51 141.03L952.292 136.2C941.035 133.753 932.442 129.8 926.691 124.219L926.683 124.211L926.675 124.203C920.828 118.356 918.025 109.865 918.025 98.9922C918.025 90.3482 920.274 82.935 924.846 76.8402L924.849 76.835C929.534 70.6454 935.795 65.9813 943.583 62.8305C951.363 59.5225 960.177 57.8862 969.999 57.8862C979.516 57.8862 987.953 59.6093 995.272 63.1015C1002.74 66.5887 1008.6 71.5123 1012.79 77.8818C1016.99 84.2736 1019.07 91.7325 1019.07 100.2V101.7H980.815V100.2C980.815 96.3161 979.705 93.4316 977.632 91.3589L977.615 91.3418L977.598 91.3242C975.54 89.1292 972.523 87.9342 968.308 87.9342C964.375 87.9342 961.356 88.9138 959.111 90.7379L959.102 90.7451C957.06 92.3791 956.043 94.5157 956.043 97.3017C956.043 99.3832 956.891 101.145 958.75 102.659C960.666 104.22 963.667 105.52 967.903 106.462C967.905 106.463 967.907 106.463 967.909 106.463L990.351 111.29C990.352 111.29 990.354 111.29 990.356 111.291C1000.5 113.419 1008.37 117.133 1013.79 122.549C1019.48 127.907 1022.21 135.679 1022.21 145.602C1022.21 154.414 1019.88 162.134 1015.17 168.695C1010.48 175.227 1003.97 180.219 995.695 183.693L995.684 183.698L995.672 183.703C987.412 187.006 977.959 188.64 967.342 188.64C951.172 188.64 938.163 184.8 928.482 176.955L928.476 176.95L928.47 176.945C918.784 168.929 913.919 158.521 913.919 145.843V144.343ZM1012.74 123.625C1007.59 118.473 1000.03 114.851 990.043 112.758L967.584 107.928C958.89 105.996 954.543 102.454 954.543 97.3017C954.543 94.0817 955.75 91.5057 958.165 89.5737C960.741 87.4807 964.122 86.4342 968.308 86.4342C972.816 86.4342 976.278 87.7222 978.693 90.2982C981.108 92.7132 982.315 96.0137 982.315 100.2H1017.57C1017.57 99.6958 1017.57 99.1958 1017.55 98.6997C1017.32 91.1132 1015.31 84.4487 1011.54 78.7062C1007.51 72.5882 1001.88 67.8387 994.632 64.4577C987.548 61.0767 979.337 59.3862 969.999 59.3862C960.339 59.3862 951.725 60.9962 944.158 64.2162C936.591 67.2752 930.554 71.7832 926.046 77.7402C921.698 83.5362 919.525 90.6202 919.525 98.9922C919.525 109.618 922.262 117.668 927.736 123.142C933.21 128.455 941.502 132.319 952.611 134.734L974.829 139.564C979.337 140.53 982.235 141.899 983.523 143.67C984.972 145.441 985.696 147.212 985.696 148.983C985.696 152.042 984.328 154.537 981.591 156.469C978.854 158.401 974.587 159.367 968.791 159.367C963.156 159.367 958.809 158.16 955.75 155.745C952.691 153.33 951.001 150.029 950.679 145.843H915.419C915.419 146.347 915.427 146.847 915.443 147.343C915.812 158.897 920.473 168.38 929.427 175.789C938.765 183.356 951.403 187.14 967.342 187.14C977.807 187.14 987.065 185.53 995.115 182.31C1003.16 178.929 1009.44 174.099 1013.95 167.82C1018.46 161.541 1020.71 154.135 1020.71 145.602C1020.71 135.942 1018.06 128.616 1012.74 123.625Z" fill="black"/>
</svg>
